<?xml version="1.0" standalone="no"?>
<!DOCTYPE svg PUBLIC "-//W3C//DTD SVG 20010904//EN"
 "http://www.w3.org/TR/2001/REC-SVG-20010904/DTD/svg10.dtd">
<svg version="1.0" xmlns="http://www.w3.org/2000/svg"
 width="512.000000pt" height="512.000000pt" viewBox="0 0 512.000000 512.000000"
 preserveAspectRatio="xMidYMid meet">
<metadata>
Created by potrace 1.11, written by Peter Selinger 2001-2013
</metadata>
<g transform="translate(0.000000,512.000000) scale(0.100000,-0.100000)"
fill="#000000" stroke="none">
<path d="M2369 5116 c-2 -2 -31 -6 -64 -9 -306 -30 -624 -160 -895 -368 -249
-190 -452 -462 -580 -774 -41 -101 -94 -302 -105 -405 -4 -30 -9 -68 -11 -85
-12 -72 -6 -343 10 -430 2 -11 7 -42 10 -70 22 -158 114 -471 201 -680 221
-536 578 -1111 999 -1615 44 -52 83 -97 86 -100 19 -18 183 -205 270 -310 58
-69 107 -127 110 -130 3 -3 30 -36 60 -73 l55 -68 35 38 c19 21 60 68 90 103
68 79 241 271 329 365 36 39 95 104 131 144 36 41 72 81 80 90 163 181 468
612 603 850 81 145 127 230 171 321 57 116 156 340 156 353 0 5 6 23 14 40 55
122 155 483 171 618 3 24 7 55 10 69 24 125 24 472 0 590 -3 14 -8 43 -11 65
-8 52 -70 267 -90 314 -9 20 -29 64 -45 99 -16 35 -29 65 -29 67 0 5 -83 149
-89 155 -4 3 -23 31 -44 62 -77 118 -223 276 -354 381 -238 191 -563 336 -839
373 -27 3 -53 8 -57 11 -9 6 -373 14 -378 9z m291 -1001 c145 -22 327 -119
439 -235 204 -211 281 -506 206 -795 -18 -67 -92 -225 -127 -269 -80 -100
-180 -186 -278 -239 -278 -150 -644 -119 -884 75 -53 43 -155 148 -156 160 0
4 -6 13 -13 20 -28 29 -78 129 -108 219 -28 82 -32 110 -35 224 -4 145 8 220
52 331 44 109 79 164 169 261 161 175 379 266 615 257 41 -1 95 -6 120 -9z"/>
</g>
</svg>
